<svg xmlns="http://www.w3.org/2000/svg" viewBox="0 0 64 64"><title>64-33</title><g id="Email"><path d="M64,29a1.17,1.17,0,0,0-.3311-.7432L54,19.5548V11a1.092,1.092,0,0,0-.293-.707l-10-10A1.1161,1.1161,0,0,0,43,0H11a1,1,0,0,0-1,1V19.5548L.3311,28.2568A1.1664,1.1664,0,0,0,0,29V63a1.0117,1.0117,0,0,0,1,1H63a1.0181,1.0181,0,0,0,1-1Zm-2,1.8074V60.8027L41.9841,43.37C61.28,31.2665,49.8956,38.4016,62,30.8074Zm-.6533-1.95L54,33.4665V22.2452ZM50.5859,10H44V3.4141ZM42,2v9a1,1,0,0,0,1,1h9V34.7213l-11.5941,7.274-7.7492-6.7492a.9993.9993,0,0,0-1.3134,0l-7.7489,6.7491L12,34.7211V2ZM2,30.8074C6.7906,33.8129,13.0705,37.7589,22.0158,43.37L2,60.8031Zm8,2.659L2.6533,28.8572,10,22.2452ZM3.6709,62C37.1579,32.8338,17.2724,50.1577,32,37.3262L60.3291,62Z" style="fill:#1b1a1e"/><path d="M16,7H39a1,1,0,0,0,0-2H16a1,1,0,0,0,0,2Z" style="fill:#1b1a1e"/><path d="M16,12H39a1,1,0,0,0,0-2H16a1,1,0,0,0,0,2Z" style="fill:#1b1a1e"/><path d="M16,17H48a1,1,0,0,0,0-2H16a1,1,0,0,0,0,2Z" style="fill:#1b1a1e"/><path d="M16,22H48a1,1,0,0,0,0-2H16a1,1,0,0,0,0,2Z" style="fill:#1b1a1e"/><path d="M16,27H48a1,1,0,0,0,0-2H16a1,1,0,0,0,0,2Z" style="fill:#1b1a1e"/><path d="M16,32H48a1,1,0,0,0,0-2H16a1,1,0,0,0,0,2Z" style="fill:#1b1a1e"/></g></svg>